<svg version="1.1" xmlns="http://www.w3.org/2000/svg" style="display: block;" viewBox="0 0 2048 1365" width="1536" height="1024" preserveAspectRatio="none">
<defs>
	<linearGradient id="Gradient1" gradientUnits="userSpaceOnUse" x1="377.355" y1="1076.16" x2="343.73" y2="1048.06">
		<stop class="stop0" offset="0" stop-opacity="1" stop-color="rgb(250,194,55)"/>
		<stop class="stop1" offset="1" stop-opacity="1" stop-color="rgb(255,239,106)"/>
	</linearGradient>
	<linearGradient id="Gradient2" gradientUnits="userSpaceOnUse" x1="509.194" y1="1131.43" x2="379.545" y2="1041.18">
		<stop class="stop0" offset="0" stop-opacity="1" stop-color="rgb(148,78,0)"/>
		<stop class="stop1" offset="1" stop-opacity="1" stop-color="rgb(254,200,59)"/>
	</linearGradient>
	<linearGradient id="Gradient3" gradientUnits="userSpaceOnUse" x1="896.378" y1="1013.76" x2="778.25" y2="944.86">
		<stop class="stop0" offset="0" stop-opacity="1" stop-color="rgb(185,114,5)"/>
		<stop class="stop1" offset="1" stop-opacity="1" stop-color="rgb(255,235,89)"/>
	</linearGradient>
	<linearGradient id="Gradient4" gradientUnits="userSpaceOnUse" x1="764.064" y1="1116.26" x2="613.426" y2="996.115">
		<stop class="stop0" offset="0" stop-opacity="1" stop-color="rgb(168,101,4)"/>
		<stop class="stop1" offset="1" stop-opacity="1" stop-color="rgb(194,129,18)"/>
	</linearGradient>
	<linearGradient id="Gradient5" gradientUnits="userSpaceOnUse" x1="677.697" y1="934.901" x2="549.856" y2="858.262">
		<stop class="stop0" offset="0" stop-opacity="1" stop-color="rgb(210,138,17)"/>
		<stop class="stop1" offset="1" stop-opacity="1" stop-color="rgb(255,250,110)"/>
	</linearGradient>
	<linearGradient id="Gradient6" gradientUnits="userSpaceOnUse" x1="1120.98" y1="444.288" x2="1168.25" y2="412.888">
		<stop class="stop0" offset="0" stop-opacity="1" stop-color="rgb(123,58,0)"/>
		<stop class="stop1" offset="1" stop-opacity="1" stop-color="rgb(214,150,24)"/>
	</linearGradient>
	<linearGradient id="Gradient7" gradientUnits="userSpaceOnUse" x1="1151.1" y1="412.105" x2="1201.7" y2="383.159">
		<stop class="stop0" offset="0" stop-opacity="1" stop-color="rgb(199,133,16)"/>
		<stop class="stop1" offset="1" stop-opacity="1" stop-color="rgb(252,203,66)"/>
	</linearGradient>
	<linearGradient id="Gradient8" gradientUnits="userSpaceOnUse" x1="1371.08" y1="310.111" x2="1172.76" y2="362.298">
		<stop class="stop0" offset="0" stop-opacity="1" stop-color="rgb(231,169,37)"/>
		<stop class="stop1" offset="1" stop-opacity="1" stop-color="rgb(255,253,132)"/>
	</linearGradient>
	<linearGradient id="Gradient9" gradientUnits="userSpaceOnUse" x1="1345.16" y1="291.672" x2="1943.98" y2="265.625">
		<stop class="stop0" offset="0" stop-opacity="1" stop-color="rgb(174,109,10)"/>
		<stop class="stop1" offset="1" stop-opacity="1" stop-color="rgb(216,152,28)"/>
	</linearGradient>
	<linearGradient id="Gradient10" gradientUnits="userSpaceOnUse" x1="1206.02" y1="1044.85" x2="1115.71" y2="972.438">
		<stop class="stop0" offset="0" stop-opacity="1" stop-color="rgb(228,163,35)"/>
		<stop class="stop1" offset="1" stop-opacity="1" stop-color="rgb(255,230,91)"/>
	</linearGradient>
	<linearGradient id="Gradient11" gradientUnits="userSpaceOnUse" x1="1027.71" y1="698.803" x2="962.206" y2="751.782">
		<stop class="stop0" offset="0" stop-opacity="1" stop-color="rgb(99,42,0)"/>
		<stop class="stop1" offset="1" stop-opacity="1" stop-color="rgb(195,126,11)"/>
	</linearGradient>
	<linearGradient id="Gradient12" gradientUnits="userSpaceOnUse" x1="1018.26" y1="734.096" x2="1029.39" y2="903.064">
		<stop class="stop0" offset="0" stop-opacity="1" stop-color="rgb(165,94,0)"/>
		<stop class="stop1" offset="1" stop-opacity="1" stop-color="rgb(240,186,51)"/>
	</linearGradient>
	<linearGradient id="Gradient13" gradientUnits="userSpaceOnUse" x1="1029.81" y1="855.466" x2="1125.39" y2="992.167">
		<stop class="stop0" offset="0" stop-opacity="1" stop-color="rgb(241,180,41)"/>
		<stop class="stop1" offset="1" stop-opacity="1" stop-color="rgb(255,242,109)"/>
	</linearGradient>
	<linearGradient id="Gradient14" gradientUnits="userSpaceOnUse" x1="1872.75" y1="1200.69" x2="1778.98" y2="1129.4">
		<stop class="stop0" offset="0" stop-opacity="1" stop-color="rgb(184,116,11)"/>
		<stop class="stop1" offset="1" stop-opacity="1" stop-color="rgb(205,142,25)"/>
	</linearGradient>
	<linearGradient id="Gradient15" gradientUnits="userSpaceOnUse" x1="1748.88" y1="1187.53" x2="1578.52" y2="1052.81">
		<stop class="stop0" offset="0" stop-opacity="1" stop-color="rgb(215,153,33)"/>
		<stop class="stop1" offset="1" stop-opacity="1" stop-color="rgb(255,203,63)"/>
	</linearGradient>
	<linearGradient id="Gradient16" gradientUnits="userSpaceOnUse" x1="274.99" y1="188.954" x2="275.024" y2="192.385">
		<stop class="stop0" offset="0" stop-opacity="1" stop-color="rgb(249,247,195)"/>
		<stop class="stop1" offset="1" stop-opacity="1" stop-color="rgb(254,253,244)"/>
	</linearGradient>
	<linearGradient id="Gradient17" gradientUnits="userSpaceOnUse" x1="1106.03" y1="983.023" x2="1076.92" y2="299.215">
		<stop class="stop0" offset="0" stop-opacity="1" stop-color="rgb(203,134,17)"/>
		<stop class="stop1" offset="1" stop-opacity="1" stop-color="rgb(255,215,75)"/>
	</linearGradient>
	<linearGradient id="Gradient18" gradientUnits="userSpaceOnUse" x1="103.646" y1="199.401" x2="300.452" y2="277.754">
		<stop class="stop0" offset="0" stop-opacity="1" stop-color="rgb(255,235,116)"/>
		<stop class="stop1" offset="1" stop-opacity="1" stop-color="rgb(254,255,170)"/>
	</linearGradient>
	<linearGradient id="Gradient19" gradientUnits="userSpaceOnUse" x1="1334.64" y1="1182.42" x2="1427.15" y2="943.096">
		<stop class="stop0" offset="0" stop-opacity="1" stop-color="rgb(176,111,14)"/>
		<stop class="stop1" offset="1" stop-opacity="1" stop-color="rgb(198,135,22)"/>
	</linearGradient>
</defs>
<path transform="translate(0,0)" fill="url(#Gradient19)" d="M 87.0369 186.786 C 89.2508 185.439 91.3053 185.214 93.8746 185.108 C 113.475 184.293 133.405 185.003 153.042 184.969 L 277.28 184.984 L 633.418 185.093 L 688.162 185.331 C 696.623 185.445 705.315 186.418 713.729 185.978 C 824.544 195.762 920.149 231.497 1004.9 305.207 C 1018.31 316.866 1031.03 329.833 1043.01 342.945 C 1048.44 348.89 1055.87 359.712 1062 364.191 C 1065.88 369.356 1070.28 374.512 1073.58 380.055 C 1074.65 381.87 1075.57 383.863 1077.29 385.146 C 1100.79 416.164 1119.68 450.54 1135.34 486.102 C 1142.6 502.597 1150.21 520.322 1155.53 537.534 C 1157.8 544.894 1160.29 562.779 1164.75 567.976 C 1194.9 667.562 1186.62 795.778 1244.42 883.624 C 1271.99 933.918 1325.06 976.634 1380.02 992.888 C 1384.36 994.144 1388.74 995.316 1393.13 996.405 C 1428.94 1007.08 1485.39 1003.25 1523.52 1003.21 L 1660.76 1002.95 C 1690.29 1002.88 1720.08 1002.29 1749.59 1003.56 C 1757.75 1011.09 1764.69 1020.19 1771.96 1028.59 C 1787.29 1046.33 1802.49 1064.17 1817.57 1082.12 L 1870.57 1144.09 C 1880.81 1156.08 1891.67 1167.87 1900.93 1180.63 L 1901.95 1182.56 C 1901.6 1183.38 1901.56 1184.13 1900.7 1184.51 C 1897.48 1185.95 1893.75 1185.94 1890.29 1186.03 C 1857.75 1186.84 1824.96 1185.94 1792.39 1185.96 L 1579.01 1185.97 L 1455.42 1185.98 C 1424.25 1185.99 1392.97 1186.78 1361.9 1183.83 C 1320.84 1179.94 1281.53 1169.35 1243.32 1154.05 C 1129.53 1108.51 1036.72 1013.45 988.831 901.267 C 951.987 813.588 940.893 717.225 956.85 623.468 C 959.409 609.06 961.105 593.583 966.611 579.921 C 961.127 568.068 956.886 555.946 950.756 544.319 C 922.937 491.55 878.942 440.311 825.274 412.538 C 806.16 400.107 778.961 391.09 756.79 385.586 C 709.073 372.747 630.078 377.116 579.551 377.167 L 371.78 377.144 C 332.473 377.179 292.768 378.409 253.504 376.902 C 250.085 373.821 247.197 370.64 244.313 367.055 L 234.434 356.509 C 222.067 341.081 208.254 326.479 195.221 311.579 L 113.378 218.151 C 107.304 211.446 89.1934 194.465 87.0369 186.786 z"/>
<path transform="translate(0,0)" fill="rgb(247,205,75)" d="M 113.378 218.151 C 107.304 211.446 89.1934 194.465 87.0369 186.786 L 89.1938 188.141 C 92.8741 189.955 97.3066 191.622 100.159 194.589 C 110.075 188.856 181.75 192.71 198.378 191.659 C 229.351 190.437 263.878 194.393 295.866 194.313 C 317.961 194.259 345.187 189.666 366.469 191.945 L 382.966 191.809 C 409.247 193.157 436.107 191.434 462.449 191.309 L 631.971 190.803 C 670.977 190.81 709.956 190.031 748.631 196.071 C 767.141 198.962 784.195 203.289 802.167 208.303 C 808.993 210.207 816.553 211.641 823.065 214.423 C 827.355 216.256 830.845 219.734 835.192 221.757 C 849.232 228.289 864.589 232.91 879.026 238.609 C 888.734 242.441 897.246 248.356 907.616 250.043 C 916.025 251.412 955.932 273.075 961.196 280.167 C 961.315 280.367 961.426 280.572 961.552 280.767 C 965.875 287.446 987.546 296.614 987.924 303.026 C 952.607 322.846 967.36 337.06 947.883 356.336 C 940.456 363.686 928.933 362.525 920.463 368.209 C 914.536 372.187 912.957 380.708 907.913 385.445 C 896.146 396.497 880.482 399.138 871.287 413.529 L 871.329 414.75 C 871.603 423.829 867.629 427.832 874.992 435.326 C 872.345 433.7 870.406 432.504 867.201 432.265 C 863.515 430.696 857.122 426.161 854.877 422.878 C 845.689 417.972 837.139 411.445 828.032 406.272 C 803.312 392.231 774.969 382.06 747.115 376.518 L 747.98 377.926 C 756.398 379.818 784.543 385.53 789.786 391.197 C 783.007 392.128 756.119 379.081 747.741 380.84 C 768.192 386.949 788.327 392.645 807.819 401.535 C 866.579 428.333 916.805 478.565 947.317 535.082 C 952.463 544.615 967.077 569.014 966.611 579.921 C 961.127 568.068 956.886 555.946 950.756 544.319 C 922.937 491.55 878.942 440.311 825.274 412.538 C 806.16 400.107 778.961 391.09 756.79 385.586 C 709.073 372.747 630.078 377.116 579.551 377.167 L 371.78 377.144 C 332.473 377.179 292.768 378.409 253.504 376.902 C 250.085 373.821 247.197 370.64 244.313 367.055 L 234.434 356.509 C 222.067 341.081 208.254 326.479 195.221 311.579 L 113.378 218.151 z"/>
<path transform="translate(0,0)" fill="url(#Gradient18)" d="M 100.159 194.589 C 110.075 188.856 181.75 192.71 198.378 191.659 C 229.351 190.437 263.878 194.393 295.866 194.313 C 317.961 194.259 345.187 189.666 366.469 191.945 L 365.402 192.365 C 356.925 195.634 341.77 191.782 335.241 196.407 C 324.636 203.92 310.63 241.355 302.502 254.591 C 298.05 261.84 292.203 268.516 287.183 275.405 C 276.834 289.607 266.507 304.089 256.561 318.587 C 251.749 325.6 246.341 332.722 242.825 340.482 C 241.487 343.434 239.928 347.21 241.132 350.424 C 242.261 353.438 245.41 353.092 246.455 355.368 C 249.209 361.368 252.847 365.636 258.338 369.321 L 254.62 370.224 L 100.159 194.589 z"/>
<path transform="translate(0,0)" fill="rgb(147,75,2)" d="M 113.378 218.151 C 107.304 211.446 89.1934 194.465 87.0369 186.786 L 89.1938 188.141 C 92.8741 189.955 97.3066 191.622 100.159 194.589 L 254.62 370.224 L 255.028 371.533 L 256.21 371.407 C 280.525 368.959 305.948 371.707 330.46 370.818 C 336.856 369.489 344.075 370.121 350.615 369.8 C 376.968 368.509 403.031 369.452 429.35 368.923 C 438.166 368.745 448.166 366.184 456.78 367.399 C 458.561 367.65 459.723 367.542 461.491 367.197 C 497.506 369.408 534.414 368.266 570.508 368.184 C 593.549 368.132 620.875 369.601 643.511 367.158 C 650.491 366.994 688.643 366.121 692.32 368.947 C 683.42 370.062 672.312 368.486 663.937 370.742 C 677.298 370.911 692.705 372.64 705.864 370.904 C 719.523 372.295 733.763 373.294 747.115 376.518 L 747.98 377.926 C 756.398 379.818 784.543 385.53 789.786 391.197 C 783.007 392.128 756.119 379.081 747.741 380.84 C 768.192 386.949 788.327 392.645 807.819 401.535 C 866.579 428.333 916.805 478.565 947.317 535.082 C 952.463 544.615 967.077 569.014 966.611 579.921 C 961.127 568.068 956.886 555.946 950.756 544.319 C 922.937 491.55 878.942 440.311 825.274 412.538 C 806.16 400.107 778.961 391.09 756.79 385.586 C 709.073 372.747 630.078 377.116 579.551 377.167 L 371.78 377.144 C 332.473 377.179 292.768 378.409 253.504 376.902 C 250.085 373.821 247.197 370.64 244.313 367.055 L 234.434 356.509 C 222.067 341.081 208.254 326.479 195.221 311.579 L 113.378 218.151 z"/>
<path transform="translate(0,0)" fill="rgb(78,30,0)" d="M 244.313 367.055 C 247.556 369.616 250.527 372.216 253.413 375.174 L 649.341 374.841 C 667.681 374.824 686.273 374.149 704.548 375.784 C 715.398 376.755 738.81 381.294 747.741 380.84 C 768.192 386.949 788.327 392.645 807.819 401.535 C 866.579 428.333 916.805 478.565 947.317 535.082 C 952.463 544.615 967.077 569.014 966.611 579.921 C 961.127 568.068 956.886 555.946 950.756 544.319 C 922.937 491.55 878.942 440.311 825.274 412.538 C 806.16 400.107 778.961 391.09 756.79 385.586 C 709.073 372.747 630.078 377.116 579.551 377.167 L 371.78 377.144 C 332.473 377.179 292.768 378.409 253.504 376.902 C 250.085 373.821 247.197 370.64 244.313 367.055 z"/>
<path transform="translate(0,0)" fill="rgb(248,191,36)" d="M 330.46 370.818 C 336.856 369.489 344.075 370.121 350.615 369.8 C 376.968 368.509 403.031 369.452 429.35 368.923 C 438.166 368.745 448.166 366.184 456.78 367.399 C 458.561 367.65 459.723 367.542 461.491 367.197 C 497.506 369.408 534.414 368.266 570.508 368.184 C 593.549 368.132 620.875 369.601 643.511 367.158 C 650.491 366.994 688.643 366.121 692.32 368.947 C 683.42 370.062 672.312 368.486 663.937 370.742 C 651.179 371.565 637.899 370.849 625.096 370.854 L 546.274 370.85 L 330.46 370.818 z"/>
<path transform="translate(0,0)" fill="rgb(225,159,29)" d="M 461.491 367.197 C 474.471 366.896 527.304 368.842 535.741 366.26 C 537.288 364.437 537.844 362.836 538.55 360.569 C 543.889 355.897 550.543 352.439 555.476 347.426 C 565.081 337.665 568.051 325.224 581.755 318.802 C 587.217 319.774 589.009 320.337 593.892 317.095 C 599.572 322.103 605.784 327.883 606.419 335.942 C 607.35 347.761 587.897 359.587 590.541 365.416 C 598.9 369.44 632.051 366.78 643.511 367.158 C 620.875 369.601 593.549 368.132 570.508 368.184 C 534.414 368.266 497.506 369.408 461.491 367.197 z"/>
<path transform="translate(0,0)" fill="rgb(253,248,180)" d="M 705.864 370.904 C 713.855 366.061 755.688 373.521 765.92 376.02 C 794.135 382.913 817.629 394.069 841.307 410.751 C 844.809 413.219 851.567 417.254 853.79 420.829 C 854.374 421.767 854.42 421.926 854.877 422.878 C 845.689 417.972 837.139 411.445 828.032 406.272 C 803.312 392.231 774.969 382.06 747.115 376.518 C 733.763 373.294 719.523 372.295 705.864 370.904 z"/>
<path transform="translate(0,0)" fill="url(#Gradient17)" d="M 87.0369 186.786 C 89.2508 185.439 91.3053 185.214 93.8746 185.108 C 113.475 184.293 133.405 185.003 153.042 184.969 L 277.28 184.984 L 633.418 185.093 L 688.162 185.331 C 696.623 185.445 705.315 186.418 713.729 185.978 C 824.544 195.762 920.149 231.497 1004.9 305.207 C 1018.31 316.866 1031.03 329.833 1043.01 342.945 C 1048.44 348.89 1055.87 359.712 1062 364.191 C 1065.88 369.356 1070.28 374.512 1073.58 380.055 C 1074.65 381.87 1075.57 383.863 1077.29 385.146 C 1100.79 416.164 1119.68 450.54 1135.34 486.102 C 1142.6 502.597 1150.21 520.322 1155.53 537.534 C 1157.8 544.894 1160.29 562.779 1164.75 567.976 C 1194.9 667.562 1186.62 795.778 1244.42 883.624 C 1271.99 933.918 1325.06 976.634 1380.02 992.888 C 1384.36 994.144 1388.74 995.316 1393.13 996.405 C 1428.94 1007.08 1485.39 1003.25 1523.52 1003.21 L 1660.76 1002.95 C 1690.29 1002.88 1720.08 1002.29 1749.59 1003.56 C 1757.75 1011.09 1764.69 1020.19 1771.96 1028.59 C 1787.29 1046.33 1802.49 1064.17 1817.57 1082.12 L 1870.57 1144.09 C 1880.81 1156.08 1891.67 1167.87 1900.93 1180.63 L 1896.3 1180.25 C 1885.77 1171.23 1876.87 1159.32 1867.86 1148.78 C 1848.16 1125.74 1829.03 1101.73 1808.43 1079.52 C 1803.01 1069.7 1773.3 1038.47 1763.93 1027.67 C 1760.2 1023.37 1754.97 1018.62 1752.78 1013.38 C 1750.6 1011.49 1748.94 1010.46 1746.04 1010.14 C 1727.97 1008.16 1707.56 1010.47 1689.25 1010.8 C 1664.37 1011.25 1639.44 1010.43 1614.56 1009.88 C 1544.9 1010.68 1475.18 1007.36 1405.49 1009.17 C 1378.31 1009.18 1350.86 1004.24 1324.13 999.756 C 1283.78 990.489 1247.3 977.201 1209.91 959.651 C 1173.09 938.503 1140.54 916.002 1110.32 885.855 C 1099.63 875.184 1090.1 863.491 1079.53 852.759 C 1076.12 844.92 1068.24 836.781 1063.19 829.678 C 1058.22 822.692 1053.85 815.412 1049.53 808.012 C 1044.96 804.733 1039.61 791.562 1036.61 786.081 C 1025.26 763.09 1016.47 739.544 1008.15 715.341 C 1007.56 711.969 1006.93 708.605 1006.24 705.252 C 1006.88 703.566 1007.19 701.832 1007.07 700.03 C 1006.24 687.549 1000.2 673.744 997.573 661.338 C 979.039 573.726 946.365 493.513 874.992 435.326 C 867.629 427.832 871.603 423.829 871.329 414.75 L 871.287 413.529 C 880.482 399.138 896.146 396.497 907.913 385.445 C 912.957 380.708 914.536 372.187 920.463 368.209 C 928.933 362.525 940.456 363.686 947.883 356.336 C 967.36 337.06 952.607 322.846 987.924 303.026 C 987.546 296.614 965.875 287.446 961.552 280.767 C 961.426 280.572 961.315 280.367 961.196 280.167 C 955.932 273.075 916.025 251.412 907.616 250.043 C 897.246 248.356 888.734 242.441 879.026 238.609 C 864.589 232.91 849.232 228.289 835.192 221.757 C 830.845 219.734 827.355 216.256 823.065 214.423 C 816.553 211.641 808.993 210.207 802.167 208.303 C 784.195 203.289 767.141 198.962 748.631 196.071 C 709.956 190.031 670.977 190.81 631.971 190.803 L 462.449 191.309 C 436.107 191.434 409.247 193.157 382.966 191.809 L 366.469 191.945 C 345.187 189.666 317.961 194.259 295.866 194.313 C 263.878 194.393 229.351 190.437 198.378 191.659 C 181.75 192.71 110.075 188.856 100.159 194.589 C 97.3066 191.622 92.8741 189.955 89.1938 188.141 L 87.0369 186.786 z"/>
<path transform="translate(0,0)" fill="rgb(253,248,180)" d="M 87.0369 186.786 C 89.2508 185.439 91.3053 185.214 93.8746 185.108 C 113.475 184.293 133.405 185.003 153.042 184.969 L 277.28 184.984 L 633.418 185.093 L 688.162 185.331 C 696.623 185.445 705.315 186.418 713.729 185.978 C 824.544 195.762 920.149 231.497 1004.9 305.207 C 1018.31 316.866 1031.03 329.833 1043.01 342.945 C 1048.44 348.89 1055.87 359.712 1062 364.191 C 1065.88 369.356 1070.28 374.512 1073.58 380.055 C 1074.65 381.87 1075.57 383.863 1077.29 385.146 C 1100.79 416.164 1119.68 450.54 1135.34 486.102 C 1142.6 502.597 1150.21 520.322 1155.53 537.534 C 1157.8 544.894 1160.29 562.779 1164.75 567.976 C 1194.9 667.562 1186.62 795.778 1244.42 883.624 C 1271.99 933.918 1325.06 976.634 1380.02 992.888 C 1384.36 994.144 1388.74 995.316 1393.13 996.405 C 1428.94 1007.08 1485.39 1003.25 1523.52 1003.21 L 1660.76 1002.95 C 1690.29 1002.88 1720.08 1002.29 1749.59 1003.56 C 1757.75 1011.09 1764.69 1020.19 1771.96 1028.59 C 1787.29 1046.33 1802.49 1064.17 1817.57 1082.12 L 1870.57 1144.09 C 1880.81 1156.08 1891.67 1167.87 1900.93 1180.63 L 1896.3 1180.25 C 1885.77 1171.23 1876.87 1159.32 1867.86 1148.78 C 1848.16 1125.74 1829.03 1101.73 1808.43 1079.52 C 1803.01 1069.7 1773.3 1038.47 1763.93 1027.67 C 1760.2 1023.37 1754.97 1018.62 1752.78 1013.38 C 1750.6 1011.49 1748.94 1010.46 1746.04 1010.14 C 1727.97 1008.16 1707.56 1010.47 1689.25 1010.8 C 1664.37 1011.25 1639.44 1010.43 1614.56 1009.88 C 1544.9 1010.68 1475.18 1007.36 1405.49 1009.17 C 1378.31 1009.18 1350.86 1004.24 1324.13 999.756 C 1283.78 990.489 1247.3 977.201 1209.91 959.651 C 1173.09 938.503 1140.54 916.002 1110.32 885.855 C 1099.63 875.184 1090.1 863.491 1079.53 852.759 C 1076.12 844.92 1068.24 836.781 1063.19 829.678 C 1058.22 822.692 1053.85 815.412 1049.53 808.012 C 1057.43 813.967 1068.91 834.706 1075.84 843.746 C 1088.65 860.455 1103.1 876.454 1119.05 890.226 C 1134.69 898.706 1148.08 912.239 1162.68 922.459 C 1179.98 934.566 1248.08 972.781 1266.7 973.884 C 1278.87 974.605 1291.62 967.873 1304.29 968.249 C 1309.93 968.416 1316.38 974.158 1322.51 975.635 C 1298.06 958.466 1276.83 940.559 1257.97 917.146 C 1254.19 912.444 1248.62 906.355 1247.63 900.309 C 1247.59 900.104 1247.57 899.898 1247.54 899.692 C 1240.87 888.248 1233.29 877.329 1227.55 865.358 C 1186.84 780.518 1188.66 686.935 1166.57 597.287 C 1141.41 495.121 1095.71 401.245 1019.53 327.406 C 1001.73 310.152 982.479 293.026 961.196 280.167 C 955.932 273.075 916.025 251.412 907.616 250.043 C 897.246 248.356 888.734 242.441 879.026 238.609 C 864.589 232.91 849.232 228.289 835.192 221.757 C 830.845 219.734 827.355 216.256 823.065 214.423 C 816.553 211.641 808.993 210.207 802.167 208.303 C 784.195 203.289 767.141 198.962 748.631 196.071 C 709.956 190.031 670.977 190.81 631.971 190.803 L 462.449 191.309 C 436.107 191.434 409.247 193.157 382.966 191.809 L 366.469 191.945 C 345.187 189.666 317.961 194.259 295.866 194.313 C 263.878 194.393 229.351 190.437 198.378 191.659 C 181.75 192.71 110.075 188.856 100.159 194.589 C 97.3066 191.622 92.8741 189.955 89.1938 188.141 L 87.0369 186.786 z"/>
<path transform="translate(0,0)" fill="rgb(247,205,75)" d="M 1119.05 890.226 C 1134.69 898.706 1148.08 912.239 1162.68 922.459 C 1179.98 934.566 1248.08 972.781 1266.7 973.884 C 1278.87 974.605 1291.62 967.873 1304.29 968.249 C 1309.93 968.416 1316.38 974.158 1322.51 975.635 C 1298.06 958.466 1276.83 940.559 1257.97 917.146 C 1254.19 912.444 1248.62 906.355 1247.63 900.309 C 1247.59 900.104 1247.57 899.898 1247.54 899.692 C 1254.54 906.294 1264.02 921.299 1271.22 929.621 C 1297.44 959.888 1331.48 981.473 1368.31 996.396 C 1363.97 996.725 1359.55 997.094 1355.19 996.992 C 1345.77 996.771 1336.17 994.561 1326.87 993.163 C 1315.96 991.526 1304.21 990.979 1293.56 988.289 C 1239.94 974.751 1188.47 946.74 1145.17 912.74 C 1136.24 905.73 1126.83 898.516 1119.05 890.226 z"/>
<path transform="translate(0,0)" fill="url(#Gradient16)" d="M 96.4598 188.63 C 118.564 186.06 147.638 187.976 170.67 187.99 C 221.96 187.721 273.251 187.884 324.538 188.479 L 373.893 188.484 C 381.226 188.478 389.977 187.535 397.153 188.831 C 390.192 189.506 382.983 189.152 375.988 189.168 L 375.823 189.602 L 371.53 189.349 C 375.138 189.834 380.072 189.742 382.966 191.809 L 366.469 191.945 C 345.187 189.666 317.961 194.259 295.866 194.313 C 263.878 194.393 229.351 190.437 198.378 191.659 C 186.88 187.398 115.457 191.163 96.4598 188.63 z"/>
<path transform="translate(0,0)" fill="rgb(254,253,231)" d="M 1614.56 1009.88 L 1613.51 1009.65 C 1606.97 1008.24 1600.6 1009.38 1594.12 1008.4 C 1599.01 1005.24 1734.39 1006.06 1747.08 1007.51 C 1749.37 1007.78 1750.93 1009.88 1752.06 1011.73 C 1752.49 1012.44 1752.54 1012.68 1752.78 1013.38 C 1750.6 1011.49 1748.94 1010.46 1746.04 1010.14 C 1727.97 1008.16 1707.56 1010.47 1689.25 1010.8 C 1664.37 1011.25 1639.44 1010.43 1614.56 1009.88 z"/>
<path transform="translate(0,0)" fill="url(#Gradient15)" d="M 1405.49 1009.17 C 1475.18 1007.36 1544.9 1010.68 1614.56 1009.88 C 1639.44 1010.43 1664.37 1011.25 1689.25 1010.8 C 1707.56 1010.47 1727.97 1008.16 1746.04 1010.14 C 1748.94 1010.46 1750.6 1011.49 1752.78 1013.38 C 1754.97 1018.62 1760.2 1023.37 1763.93 1027.67 C 1773.3 1038.47 1803.01 1069.7 1808.43 1079.52 C 1829.03 1101.73 1848.16 1125.74 1867.86 1148.78 C 1876.87 1159.32 1885.77 1171.23 1896.3 1180.25 C 1864.79 1179.74 1833.19 1180.46 1801.65 1180.09 C 1792.61 1177.23 1730.31 1180.22 1714.36 1179.74 C 1642.43 1180.51 1570.49 1180.4 1498.56 1179.42 L 1499.01 1178.92 C 1503.24 1179.09 1507.56 1179.41 1511.8 1179.27 C 1514.36 1179.19 1515.67 1179.38 1517.5 1177.45 C 1518.79 1166.89 1524.12 1167.3 1527.61 1159.34 C 1531.61 1150.23 1539.31 1142.86 1544.62 1134.46 C 1550.15 1125.71 1553.31 1115.51 1558.79 1106.76 C 1562.96 1100.11 1568.36 1094.1 1572.94 1087.72 C 1582.12 1074.98 1608.35 1036.84 1610.95 1022.9 C 1611.59 1019.45 1611.49 1017.21 1609.47 1014.3 C 1601.49 1010.07 1579.3 1012.03 1569.71 1011.81 C 1540.33 1011.12 1511.11 1010.01 1481.7 1010.01 C 1456.5 1010 1430.55 1011.44 1405.49 1009.17 z"/>
<path transform="translate(0,0)" fill="url(#Gradient14)" d="M 1756.14 1178.96 C 1767.66 1166.16 1766.98 1146.94 1776.87 1132.77 C 1783.48 1123.3 1814.73 1099.35 1816.46 1091.87 C 1816.58 1091.33 1808.9 1082.6 1807.83 1081.17 L 1808.43 1079.52 C 1829.03 1101.73 1848.16 1125.74 1867.86 1148.78 C 1876.87 1159.32 1885.77 1171.23 1896.3 1180.25 C 1864.79 1179.74 1833.19 1180.46 1801.65 1180.09 C 1792.61 1177.23 1730.31 1180.22 1714.36 1179.74 C 1718.86 1176.6 1748.97 1178.83 1756.14 1178.96 z"/>
<path transform="translate(0,0)" fill="rgb(133,63,2)" d="M 747.115 376.518 C 774.969 382.06 803.312 392.231 828.032 406.272 C 837.139 411.445 845.689 417.972 854.877 422.878 C 857.122 426.161 863.515 430.696 867.201 432.265 C 870.406 432.504 872.345 433.7 874.992 435.326 C 946.365 493.513 979.039 573.726 997.573 661.338 C 1000.2 673.744 1006.24 687.549 1007.07 700.03 C 1007.19 701.832 1006.88 703.566 1006.24 705.252 C 1006.93 708.605 1007.56 711.969 1008.15 715.341 C 1016.47 739.544 1025.26 763.09 1036.61 786.081 C 1039.61 791.562 1044.96 804.733 1049.53 808.012 C 1053.85 815.412 1058.22 822.692 1063.19 829.678 C 1068.24 836.781 1076.12 844.92 1079.53 852.759 C 1090.1 863.491 1099.63 875.184 1110.32 885.855 C 1140.54 916.002 1173.09 938.503 1209.91 959.651 C 1192.67 953.445 1178.02 943.751 1162.71 933.874 C 1145.35 951.176 1084.09 1004.35 1077.26 1023.58 L 1077.44 1026.27 C 1077.3 1026.09 1077.16 1025.91 1077.02 1025.73 C 1075.27 1023.64 1073.87 1022.96 1071.31 1022.16 C 1099.78 1057.08 1135.81 1086.94 1173.33 1111.62 C 1179.55 1115.72 1187.86 1122.17 1195.08 1124.05 C 1202.55 1131.3 1232.55 1145.75 1242.69 1148.44 C 1269.83 1159.31 1301.02 1171.18 1330.25 1174.24 C 1347.76 1179.64 1372.75 1180.07 1391.22 1180.69 C 1423.71 1181.78 1456.5 1180.94 1489.03 1181 L 1695.42 1180.81 C 1709.96 1180.78 1795.99 1182.03 1801.65 1180.09 C 1833.19 1180.46 1864.79 1179.74 1896.3 1180.25 L 1900.93 1180.63 L 1901.95 1182.56 C 1901.6 1183.38 1901.56 1184.13 1900.7 1184.51 C 1897.48 1185.95 1893.75 1185.94 1890.29 1186.03 C 1857.75 1186.84 1824.96 1185.94 1792.39 1185.96 L 1579.01 1185.97 L 1455.42 1185.98 C 1424.25 1185.99 1392.97 1186.78 1361.9 1183.83 C 1320.84 1179.94 1281.53 1169.35 1243.32 1154.05 C 1129.53 1108.51 1036.72 1013.45 988.831 901.267 C 951.987 813.588 940.893 717.225 956.85 623.468 C 959.409 609.06 961.105 593.583 966.611 579.921 C 967.077 569.014 952.463 544.615 947.317 535.082 C 916.805 478.565 866.579 428.333 807.819 401.535 C 788.327 392.645 768.192 386.949 747.741 380.84 C 756.119 379.081 783.007 392.128 789.786 391.197 C 784.543 385.53 756.398 379.818 747.98 377.926 L 747.115 376.518 z"/>
<path transform="translate(0,0)" fill="url(#Gradient13)" d="M 1079.53 852.759 C 1090.1 863.491 1099.63 875.184 1110.32 885.855 C 1140.54 916.002 1173.09 938.503 1209.91 959.651 C 1192.67 953.445 1178.02 943.751 1162.71 933.874 C 1145.35 951.176 1084.09 1004.35 1077.26 1023.58 L 1077.44 1026.27 C 1077.3 1026.09 1077.16 1025.91 1077.02 1025.73 C 1075.27 1023.64 1073.87 1022.96 1071.31 1022.16 C 1067.1 1018.54 1063.36 1013.31 1059.81 1009.02 C 1031.48 974.922 1002.71 927.426 988.103 885.913 L 990.179 883.481 C 993.27 891.089 996.444 898.663 999.7 906.202 C 1014.81 898.608 1031.65 894.11 1047.33 887.728 C 1061.13 882.109 1074.08 874.543 1087.38 867.862 C 1084.08 863.101 1081.04 858.393 1079.53 852.759 z"/>
<path transform="translate(0,0)" fill="url(#Gradient12)" d="M 959.235 755.328 C 959.311 755.041 959.393 754.755 959.462 754.466 C 960.759 749.011 958.572 743.875 959.876 738.683 C 960.639 742.063 960.503 748.11 962.109 750.951 C 964.153 754.565 989.016 777.609 993.359 780.375 C 1001.92 785.829 1032.62 801.93 1041.54 800.412 C 1041.78 800.371 1042.01 800.276 1042.25 800.208 C 1039.79 795.532 1037.78 791.252 1036.61 786.081 C 1039.61 791.562 1044.96 804.733 1049.53 808.012 C 1053.85 815.412 1058.22 822.692 1063.19 829.678 C 1068.24 836.781 1076.12 844.92 1079.53 852.759 C 1081.04 858.393 1084.08 863.101 1087.38 867.862 C 1074.08 874.543 1061.13 882.109 1047.33 887.728 C 1031.65 894.11 1014.81 898.608 999.7 906.202 C 996.444 898.663 993.27 891.089 990.179 883.481 C 975.262 852.401 962.394 790.679 959.235 755.328 z"/>
<path transform="translate(0,0)" fill="url(#Gradient11)" d="M 960.902 631.91 C 964.072 635.003 967.928 638.312 970.428 641.955 C 975.259 648.999 978.461 659.726 985.787 664.384 L 987.035 663.783 C 986.728 661.263 985.586 658.592 985.419 656.2 C 985.624 653.799 985.67 651.575 985.583 649.173 C 985.548 648.232 985.532 648.579 985.987 647.618 L 985.777 649.025 L 985.958 648.738 C 988.452 653.265 987.81 661.676 992.316 664.992 C 998.631 681.376 1000.32 699.454 1008.15 715.341 C 1016.47 739.544 1025.26 763.09 1036.61 786.081 C 1037.78 791.252 1039.79 795.532 1042.25 800.208 C 1042.01 800.276 1041.78 800.371 1041.54 800.412 C 1032.62 801.93 1001.92 785.829 993.359 780.375 C 989.016 777.609 964.153 754.565 962.109 750.951 C 960.503 748.11 960.639 742.063 959.876 738.683 C 958.572 743.875 960.759 749.011 959.462 754.466 C 959.393 754.755 959.311 755.041 959.235 755.328 C 952.183 721.331 956.784 667.159 960.902 631.91 z"/>
<path transform="translate(0,0)" fill="rgb(78,30,0)" d="M 968.113 583.951 C 976.896 604.526 988.376 643.04 992.316 664.992 C 987.81 661.676 988.452 653.265 985.958 648.738 L 985.777 649.025 L 985.987 647.618 C 985.532 648.579 985.548 648.232 985.583 649.173 C 985.67 651.575 985.624 653.799 985.419 656.2 C 985.586 658.592 986.728 661.263 987.035 663.783 L 985.787 664.384 C 978.461 659.726 975.259 648.999 970.428 641.955 C 967.928 638.312 964.072 635.003 960.902 631.91 C 961.484 624.397 963.208 616.928 963.832 609.374 L 964.895 609.239 C 966.648 600.856 968.353 592.553 968.113 583.951 z"/>
<path transform="translate(0,0)" fill="rgb(133,63,2)" d="M 963.832 609.374 L 964.895 609.239 C 965.996 615.031 981.789 649.61 985.419 656.2 C 985.586 658.592 986.728 661.263 987.035 663.783 L 985.787 664.384 C 978.461 659.726 975.259 648.999 970.428 641.955 C 967.928 638.312 964.072 635.003 960.902 631.91 C 961.484 624.397 963.208 616.928 963.832 609.374 z"/>
<path transform="translate(0,0)" fill="rgb(247,205,75)" d="M 867.201 432.265 C 870.406 432.504 872.345 433.7 874.992 435.326 C 946.365 493.513 979.039 573.726 997.573 661.338 C 1000.2 673.744 1006.24 687.549 1007.07 700.03 C 1007.19 701.832 1006.88 703.566 1006.24 705.252 C 998.785 688.199 992.761 651.665 987.883 631.878 C 967.027 547.279 933.143 489.949 867.201 432.265 z"/>
<path transform="translate(0,0)" fill="rgb(248,191,36)" d="M 988.103 885.913 C 987.928 885.568 987.743 885.229 987.578 884.879 C 982.424 873.949 978.914 861.243 975.36 849.691 C 955.69 784.913 949.217 716.846 956.325 649.521 C 957.604 636.733 958.811 620.55 963.074 608.415 L 963.832 609.374 C 963.208 616.928 961.484 624.397 960.902 631.91 C 956.784 667.159 952.183 721.331 959.235 755.328 C 962.394 790.679 975.262 852.401 990.179 883.481 L 988.103 885.913 z"/>
<path transform="translate(0,0)" fill="url(#Gradient10)" d="M 1071.31 1022.16 C 1073.87 1022.96 1075.27 1023.64 1077.02 1025.73 C 1077.16 1025.91 1077.3 1026.09 1077.44 1026.27 L 1077.26 1023.58 C 1084.09 1004.35 1145.35 951.176 1162.71 933.874 C 1178.02 943.751 1192.67 953.445 1209.91 959.651 C 1247.3 977.201 1283.78 990.489 1324.13 999.756 C 1310.65 1003.43 1254.22 983.95 1239.32 977.846 C 1233.18 983.808 1226.92 989.726 1221.48 996.348 C 1213.92 1005.55 1207.8 1015.79 1200.85 1025.44 C 1189.06 1041.8 1177.58 1057.35 1166.7 1074.43 C 1162.93 1080.35 1158.33 1086.28 1155.66 1092.79 C 1155.93 1095.86 1158.7 1098.41 1160.99 1100.29 C 1169.89 1107.63 1188.86 1115.89 1195.08 1124.05 C 1187.86 1122.17 1179.55 1115.72 1173.33 1111.62 C 1135.81 1086.94 1099.78 1057.08 1071.31 1022.16 z"/>
<path transform="translate(0,0)" fill="rgb(178,110,8)" d="M 1242.69 1148.44 C 1246.83 1146.57 1255.72 1151.19 1260.18 1152.81 C 1274.36 1157.97 1288.59 1162.37 1303.16 1166.26 C 1310.9 1168.33 1319.99 1169.59 1327.3 1172.59 C 1328.34 1173.02 1329.32 1173.62 1330.25 1174.24 C 1301.02 1171.18 1269.83 1159.31 1242.69 1148.44 z"/>
<path transform="translate(0,0)" fill="url(#Gradient9)" d="M 1335.24 202.623 C 1369.49 193.734 1403.73 188.633 1439.01 186.254 C 1475.12 183.818 1511.89 185.34 1548.12 185.337 L 1742.11 185.231 L 1884.23 184.924 C 1909.04 184.873 1935.51 183.098 1960.16 185.786 C 1959.65 188.961 1958.93 190.026 1956.84 192.486 C 1931.34 222.441 1902.71 250.501 1875.87 279.321 L 1837.54 320.408 C 1831.22 327.159 1824.9 334.88 1817.92 340.936 C 1817.84 341.003 1817.75 341.052 1817.67 341.11 C 1808.76 352.189 1798.63 362.377 1788.72 372.566 C 1758.96 373.882 1728.83 372.942 1699.03 372.908 L 1542.36 372.917 C 1481.78 372.96 1416.84 368.461 1358.47 387.077 C 1303.64 404.565 1255.46 440.409 1216.96 482.519 C 1203.89 496.636 1191.65 511.493 1180.29 527.017 C 1173.76 536.052 1168.02 545.649 1161.43 554.622 C 1162.6 558.556 1164.91 563.947 1164.75 567.976 C 1160.29 562.779 1157.8 544.894 1155.53 537.534 C 1150.21 520.322 1142.6 502.597 1135.34 486.102 C 1119.68 450.54 1100.79 416.164 1077.29 385.146 C 1075.57 383.863 1074.65 381.87 1073.58 380.055 C 1084.86 363.763 1100.22 348.73 1113.64 334.227 C 1126.01 324.355 1135.31 310.848 1148.84 302.123 C 1154.93 294.207 1167.4 286.302 1175.6 280.334 C 1224.81 244.506 1276.8 219.633 1335.24 202.623 z"/>
<path transform="translate(0,0)" fill="url(#Gradient8)" d="M 1379.76 198.624 C 1388.58 198.102 1397.72 196.125 1406.51 194.988 C 1422.63 192.778 1438.86 191.51 1455.13 191.191 C 1454.95 191.323 1454.77 191.461 1454.59 191.585 C 1447.81 196.162 1430.81 194.726 1422.57 195.754 C 1408.59 197.498 1358.95 205.47 1348.32 210.631 C 1346.18 211.671 1345.97 213.061 1345.45 215.237 C 1343.62 222.9 1345.5 290.812 1347.23 299.388 L 1360.41 362.688 C 1361.21 366.718 1363.78 372.444 1363.62 376.38 C 1374.98 377.214 1394.36 367.073 1404.62 370.522 L 1395.76 372.334 C 1375.98 375.381 1356.63 380.78 1338.14 388.418 C 1332.43 390.726 1305.98 404.34 1303.17 404.669 C 1283.98 416.541 1266.01 429.377 1248.41 443.508 L 1247.72 442.407 L 1249.59 438.316 C 1248.59 438.95 1246.36 440.838 1245.25 440.571 C 1244.13 440.301 1243.5 439.66 1242.64 438.942 C 1241.65 441.121 1240.62 444.48 1238.94 446.103 C 1236.27 449.838 1232.72 453.525 1232.27 458.123 C 1229.3 461.943 1224.34 467.553 1220.29 470.244 L 1217.48 469.633 C 1210.98 474.18 1207.27 482.478 1201.74 486.131 C 1202.32 484.175 1203.05 482.038 1203.21 479.996 C 1203.99 470.179 1194.34 461.659 1189.82 453.753 C 1183.24 442.225 1178.62 429.599 1171.87 418.136 C 1159.59 397.278 1144.33 377.985 1128 360.185 C 1124.3 356.16 1119.39 352.869 1115.97 348.956 L 1117.64 344.658 C 1120.07 341.791 1125.11 337.323 1125.36 333.723 C 1127.83 331.18 1130.19 328.589 1132.5 325.9 C 1139.85 319.392 1147.46 311.927 1155.75 306.684 C 1169.19 292.252 1190.06 281.014 1206.8 270.657 C 1234.82 253.314 1261.5 235.42 1292.89 224.297 C 1320.33 211.998 1350.44 204.815 1379.76 198.624 z"/>
<path transform="translate(0,0)" fill="url(#Gradient7)" d="M 1177.57 293.346 L 1177.88 294.864 C 1171.52 299.735 1164.98 304.46 1159.28 310.097 C 1176 329.849 1205.28 397.407 1216.74 423.189 C 1219.03 428.326 1222.25 433.12 1224.32 438.309 C 1226.35 443.393 1227.75 448.8 1229.54 453.988 C 1232.75 451.453 1235.89 448.824 1238.94 446.103 C 1236.27 449.838 1232.72 453.525 1232.27 458.123 C 1229.3 461.943 1224.34 467.553 1220.29 470.244 L 1217.48 469.633 C 1210.98 474.18 1207.27 482.478 1201.74 486.131 C 1202.32 484.175 1203.05 482.038 1203.21 479.996 C 1203.99 470.179 1194.34 461.659 1189.82 453.753 C 1183.24 442.225 1178.62 429.599 1171.87 418.136 C 1159.59 397.278 1144.33 377.985 1128 360.185 C 1124.3 356.16 1119.39 352.869 1115.97 348.956 L 1117.64 344.658 C 1120.07 341.791 1125.11 337.323 1125.36 333.723 C 1127.83 331.18 1130.19 328.589 1132.5 325.9 C 1139.85 319.392 1147.46 311.927 1155.75 306.684 C 1163.05 304.321 1171.08 297.668 1177.57 293.346 z"/>
<path transform="translate(0,0)" fill="rgb(253,248,180)" d="M 1155.75 306.684 C 1169.19 292.252 1190.06 281.014 1206.8 270.657 C 1234.82 253.314 1261.5 235.42 1292.89 224.297 C 1280.77 235.409 1221.51 255.815 1220.81 271.127 C 1220.08 287.236 1243.79 351.769 1240.57 358.905 C 1240.26 359.607 1239.29 360.524 1238.79 361.157 C 1235.11 357.793 1232.69 348.958 1230.34 344.341 C 1226.14 336.083 1199.92 286.144 1194 284.054 C 1189.32 286.126 1180.45 289.109 1177.57 293.346 C 1171.08 297.668 1163.05 304.321 1155.75 306.684 z"/>
<path transform="translate(0,0)" fill="rgb(253,248,180)" d="M 1249.59 438.316 C 1251.79 434.375 1250.52 428.351 1250.35 423.982 C 1253.14 423.589 1253.78 423.851 1256.07 425.214 C 1256.24 424.39 1256.42 423.568 1256.58 422.742 C 1256.58 422.72 1256.57 422.698 1256.57 422.676 C 1256.75 413.504 1250.73 401.442 1253.53 393.136 L 1255.21 393.186 C 1261.1 398.033 1264.7 406.054 1269.44 412.029 C 1270.67 413.582 1273.67 417.272 1275.78 417.291 C 1280.66 417.334 1293.3 403.673 1303.17 404.669 C 1283.98 416.541 1266.01 429.377 1248.41 443.508 L 1247.72 442.407 L 1249.59 438.316 z"/>
<path transform="translate(0,0)" fill="url(#Gradient6)" d="M 1113.64 334.227 C 1126.01 324.355 1135.31 310.848 1148.84 302.123 C 1144.8 307.969 1139.11 312.446 1134.18 317.524 C 1125.08 326.915 1113.18 339.446 1105.42 349.704 C 1111.5 350.227 1119.75 336.887 1125.36 333.723 C 1125.11 337.323 1120.07 341.791 1117.64 344.658 L 1115.97 348.956 C 1119.39 352.869 1124.3 356.16 1128 360.185 C 1144.33 377.985 1159.59 397.278 1171.87 418.136 C 1178.62 429.599 1183.24 442.225 1189.82 453.753 C 1194.34 461.659 1203.99 470.179 1203.21 479.996 C 1203.05 482.038 1202.32 484.175 1201.74 486.131 C 1197.6 488.888 1171.14 523.592 1165.29 530.738 L 1165.65 531.134 L 1169.04 529.15 L 1169.66 529.509 C 1168.82 531.374 1167.61 533.464 1167.26 535.465 C 1166.33 537.732 1165.65 539.099 1163.79 540.72 C 1157.61 531.434 1162.92 517.171 1157.39 504.191 C 1155.51 502.729 1153.53 501.267 1151.81 499.613 C 1144.4 492.467 1151.36 490.719 1149.77 484.223 C 1147.81 476.178 1139.21 470.992 1139.21 461.651 C 1133.63 451.666 1105.98 403.722 1099.04 399.628 C 1089.64 394.086 1092.33 384.914 1084.63 381.231 C 1081.33 381.319 1079.68 383.124 1077.29 385.146 C 1075.57 383.863 1074.65 381.87 1073.58 380.055 C 1084.86 363.763 1100.22 348.73 1113.64 334.227 z"/>
<path transform="translate(0,0)" fill="rgb(147,75,2)" d="M 1113.64 334.227 C 1126.01 324.355 1135.31 310.848 1148.84 302.123 C 1144.8 307.969 1139.11 312.446 1134.18 317.524 C 1125.08 326.915 1113.18 339.446 1105.42 349.704 C 1097.33 357.242 1089.01 366.988 1083.65 376.665 L 1084.07 376.871 L 1085.06 375.655 C 1088.87 376.224 1091.4 376.104 1093.96 379.463 C 1106.33 395.678 1117.3 412.23 1128.05 429.542 L 1125.3 431.661 C 1130.76 438.363 1138.06 445.755 1141.55 453.638 C 1142.25 455.217 1143.17 456.53 1144.15 457.939 C 1143.19 459.001 1143.72 458.506 1142.56 459.416 C 1144.07 461.682 1146.03 463.822 1145.77 466.661 L 1144.64 467.326 C 1142.87 465.394 1141.06 463.502 1139.21 461.651 C 1133.63 451.666 1105.98 403.722 1099.04 399.628 C 1089.64 394.086 1092.33 384.914 1084.63 381.231 C 1081.33 381.319 1079.68 383.124 1077.29 385.146 C 1075.57 383.863 1074.65 381.87 1073.58 380.055 C 1084.86 363.763 1100.22 348.73 1113.64 334.227 z"/>
<path transform="translate(0,0)" fill="rgb(247,205,75)" d="M 1105.42 349.704 C 1111.5 350.227 1119.75 336.887 1125.36 333.723 C 1125.11 337.323 1120.07 341.791 1117.64 344.658 C 1107.56 354.368 1093.28 364.735 1085.06 375.655 L 1084.07 376.871 L 1083.65 376.665 C 1089.01 366.988 1097.33 357.242 1105.42 349.704 z"/>
<path transform="translate(0,0)" fill="rgb(253,248,180)" d="M 1335.24 202.623 C 1369.49 193.734 1403.73 188.633 1439.01 186.254 C 1475.12 183.818 1511.89 185.34 1548.12 185.337 L 1742.11 185.231 L 1884.23 184.924 C 1909.04 184.873 1935.51 183.098 1960.16 185.786 C 1957.35 189.024 1953.55 189.843 1950.78 192.641 C 1935.81 190.188 1915.57 192.095 1900.19 192.134 L 1795.53 192.112 L 1640.33 191.666 C 1578.65 191.088 1516.8 190.026 1455.13 191.191 C 1438.86 191.51 1422.63 192.778 1406.51 194.988 C 1397.72 196.125 1388.58 198.102 1379.76 198.624 C 1350.44 204.815 1320.33 211.998 1292.89 224.297 C 1261.5 235.42 1234.82 253.314 1206.8 270.657 C 1190.06 281.014 1169.19 292.252 1155.75 306.684 C 1147.46 311.927 1139.85 319.392 1132.5 325.9 C 1130.19 328.589 1127.83 331.18 1125.36 333.723 C 1119.75 336.887 1111.5 350.227 1105.42 349.704 C 1113.18 339.446 1125.08 326.915 1134.18 317.524 C 1139.11 312.446 1144.8 307.969 1148.84 302.123 C 1154.93 294.207 1167.4 286.302 1175.6 280.334 C 1224.81 244.506 1276.8 219.633 1335.24 202.623 z"/>
<path transform="translate(0,0)" fill="rgb(254,253,231)" d="M 1132.5 325.9 L 1131.8 323.72 C 1137.28 315.668 1147.83 308.058 1155.39 301.651 C 1203.92 260.55 1257.63 232.18 1317.69 211.894 C 1327.37 208.625 1371.8 194.686 1379.76 198.624 C 1350.44 204.815 1320.33 211.998 1292.89 224.297 C 1261.5 235.42 1234.82 253.314 1206.8 270.657 C 1190.06 281.014 1169.19 292.252 1155.75 306.684 C 1147.46 311.927 1139.85 319.392 1132.5 325.9 z"/>
<path transform="translate(0,0)" fill="rgb(78,30,0)" d="M 1787.65 370.635 C 1797.21 362.106 1806.25 346.583 1817.67 341.11 C 1808.76 352.189 1798.63 362.377 1788.72 372.566 C 1758.96 373.882 1728.83 372.942 1699.03 372.908 L 1542.36 372.917 C 1481.78 372.96 1416.84 368.461 1358.47 387.077 C 1303.64 404.565 1255.46 440.409 1216.96 482.519 C 1203.89 496.636 1191.65 511.493 1180.29 527.017 C 1173.76 536.052 1168.02 545.649 1161.43 554.622 C 1162.6 558.556 1164.91 563.947 1164.75 567.976 C 1160.29 562.779 1157.8 544.894 1155.53 537.534 C 1150.21 520.322 1142.6 502.597 1135.34 486.102 C 1119.68 450.54 1100.79 416.164 1077.29 385.146 C 1079.68 383.124 1081.33 381.319 1084.63 381.231 C 1092.33 384.914 1089.64 394.086 1099.04 399.628 C 1105.98 403.722 1133.63 451.666 1139.21 461.651 C 1139.21 470.992 1147.81 476.178 1149.77 484.223 C 1151.36 490.719 1144.4 492.467 1151.81 499.613 C 1153.53 501.267 1155.51 502.729 1157.39 504.191 C 1162.92 517.171 1157.61 531.434 1163.79 540.72 C 1165.65 539.099 1166.33 537.732 1167.26 535.465 C 1167.61 533.464 1168.82 531.374 1169.66 529.509 L 1169.04 529.15 L 1165.65 531.134 L 1165.29 530.738 C 1171.14 523.592 1197.6 488.888 1201.74 486.131 C 1207.27 482.478 1210.98 474.18 1217.48 469.633 L 1220.29 470.244 C 1224.34 467.553 1229.3 461.943 1232.27 458.123 C 1232.72 453.525 1236.27 449.838 1238.94 446.103 C 1240.62 444.48 1241.65 441.121 1242.64 438.942 C 1243.5 439.66 1244.13 440.301 1245.25 440.571 C 1246.36 440.838 1248.59 438.95 1249.59 438.316 L 1247.72 442.407 L 1248.41 443.508 C 1266.01 429.377 1283.98 416.541 1303.17 404.669 C 1305.98 404.34 1332.43 390.726 1338.14 388.418 C 1356.63 380.78 1375.98 375.381 1395.76 372.334 L 1398.26 374.951 C 1407.03 375.42 1416.53 373.47 1425.34 372.687 C 1438.36 371.548 1451.42 370.936 1464.49 370.851 L 1687.39 370.836 C 1720.81 371.204 1754.23 371.137 1787.65 370.635 z"/>
<path transform="translate(0,0)" fill="rgb(225,159,29)" d="M 1201.74 486.131 C 1207.27 482.478 1210.98 474.18 1217.48 469.633 L 1220.29 470.244 C 1201.4 491.137 1184.04 512.834 1167.26 535.465 C 1167.61 533.464 1168.82 531.374 1169.66 529.509 L 1169.04 529.15 L 1165.65 531.134 L 1165.29 530.738 C 1171.14 523.592 1197.6 488.888 1201.74 486.131 z"/>
<path transform="translate(0,0)" fill="rgb(247,205,75)" d="M 1238.94 446.103 C 1240.62 444.48 1241.65 441.121 1242.64 438.942 C 1243.5 439.66 1244.13 440.301 1245.25 440.571 C 1246.36 440.838 1248.59 438.95 1249.59 438.316 L 1247.72 442.407 L 1248.41 443.508 C 1243.11 448.468 1237.87 453.504 1232.27 458.123 C 1232.72 453.525 1236.27 449.838 1238.94 446.103 z"/>
<path transform="translate(0,0)" fill="rgb(133,63,2)" d="M 1960.16 185.786 C 1959.65 188.961 1958.93 190.026 1956.84 192.486 C 1931.34 222.441 1902.71 250.501 1875.87 279.321 L 1837.54 320.408 C 1831.22 327.159 1824.9 334.88 1817.92 340.936 C 1817.84 341.003 1817.75 341.052 1817.67 341.11 C 1806.25 346.583 1797.21 362.106 1787.65 370.635 C 1754.23 371.137 1720.81 371.204 1687.39 370.836 L 1464.49 370.851 C 1451.42 370.936 1438.36 371.548 1425.34 372.687 C 1416.53 373.47 1407.03 375.42 1398.26 374.951 L 1395.76 372.334 L 1404.62 370.522 C 1408.29 371.464 1450.42 367.541 1458.64 367.368 C 1510.8 366.268 1563.12 367.044 1615.3 367.278 C 1631.67 365.786 1649.49 367.223 1665.98 367.251 C 1706.49 367.322 1747.08 367.919 1787.58 367 C 1819.51 335.187 1849.53 300.906 1880.26 267.922 C 1903.56 242.92 1928.61 218.576 1950.78 192.641 C 1953.55 189.843 1957.35 189.024 1960.16 185.786 z"/>
<path transform="translate(0,0)" fill="url(#Gradient5)" d="M 724.891 700.21 L 726.987 699.224 C 728.501 699.93 728.844 699.715 729.546 701.374 C 732.493 708.339 730.258 992.17 730.272 1022 C 730.295 1071.07 732.029 1120.55 730.563 1169.57 C 730.415 1174.51 730.139 1179.7 728.586 1184.42 C 716.788 1188.42 612.364 1186.04 591.47 1185.91 C 584.062 1185.86 576.607 1186.6 569.214 1186.28 C 565.811 1186.14 562.588 1185.88 559.449 1184.46 C 558.115 1183.04 557.278 1182.05 556.628 1180.15 L 557.225 1178.49 C 555.096 1157.31 556.765 1134.24 556.793 1112.84 L 556.904 981.854 L 556.793 874.568 C 556.811 860.728 555.013 842.717 557.458 829.269 C 558.033 826.111 561.587 824.067 564.023 822.296 C 578.11 810.445 593.139 799.514 607.746 788.309 L 699.369 718.489 C 707.863 712.266 715.676 705.405 724.891 700.21 z"/>
<path transform="translate(0,0)" fill="url(#Gradient4)" d="M 722.505 861.259 C 722.496 867.557 721.831 874.568 723.757 880.611 C 724.114 956.12 725.025 1031.83 723.589 1107.32 C 723.418 1116.34 720.406 1165.47 722.685 1169.72 C 720.254 1171.98 717.9 1174.21 715.751 1176.76 L 715.18 1176.94 C 696.05 1175.54 676.641 1177.68 657.5 1178.41 C 633.76 1179.31 609.895 1179.35 586.139 1179.28 C 579.244 1179.26 568.569 1180.7 562.292 1178.37 L 563.184 1174.35 C 567.389 1160.94 562.53 1130.82 565.831 1121.2 C 567.579 1116.11 570.396 1111.2 572.594 1106.28 C 579.626 1090.53 585.712 1075.02 596.022 1061 C 600.697 1054.64 607.553 1049.46 611.516 1042.67 C 616.188 1034.67 619.448 1025.82 623.863 1017.67 C 627.886 1010.24 632.924 1003.36 636.737 995.817 C 640.348 988.676 643.155 980.979 647.301 974.131 C 652.007 966.358 658.265 959.385 663.566 952.002 C 668.068 945.732 671.673 938.87 675.975 932.468 C 680.758 925.349 686.258 918.707 690.872 911.474 C 701.397 894.975 709.312 875.866 722.505 861.259 z"/>
<path transform="translate(0,0)" fill="rgb(133,63,2)" d="M 724.891 700.21 L 726.987 699.224 C 728.501 699.93 728.844 699.715 729.546 701.374 C 732.493 708.339 730.258 992.17 730.272 1022 C 730.295 1071.07 732.029 1120.55 730.563 1169.57 C 730.415 1174.51 730.139 1179.7 728.586 1184.42 C 716.788 1188.42 612.364 1186.04 591.47 1185.91 C 584.062 1185.86 576.607 1186.6 569.214 1186.28 C 565.811 1186.14 562.588 1185.88 559.449 1184.46 C 558.115 1183.04 557.278 1182.05 556.628 1180.15 L 557.225 1178.49 C 557.5 1178.75 557.78 1179 558.05 1179.27 C 559.037 1180.24 559.325 1181.08 559.686 1182.42 C 559.871 1182.32 560.053 1182.22 560.242 1182.13 C 567.958 1178.64 676.536 1182.43 696.249 1180.96 C 701.288 1177.28 712.823 1182.12 716.501 1178.6 L 715.18 1176.94 L 715.751 1176.76 C 717.9 1174.21 720.254 1171.98 722.685 1169.72 C 720.406 1165.47 723.418 1116.34 723.589 1107.32 C 725.025 1031.83 724.114 956.12 723.757 880.611 C 724.367 853.083 723.371 825.504 723.977 797.967 C 724.635 768.017 727.15 737.603 725.069 707.679 C 700.846 724.077 677.88 743.534 654.699 761.444 C 646.379 767.872 630.49 778.206 623.902 785.308 C 616.87 790.557 563.94 829.738 563.383 833.855 C 563.278 834.627 563.219 835.401 563.164 836.178 L 562.142 836.313 L 561.171 829.577 L 560.672 836.626 C 560.059 834.569 559.153 832.074 559.114 829.919 C 559.069 827.386 562.447 824.126 564.023 822.296 C 578.11 810.445 593.139 799.514 607.746 788.309 L 699.369 718.489 C 707.863 712.266 715.676 705.405 724.891 700.21 z"/>
<path transform="translate(0,0)" fill="rgb(248,191,36)" d="M 724.891 700.21 C 725.982 701.889 726.28 702.91 726.373 704.908 C 727.369 726.178 726.522 747.845 726.524 769.171 L 726.52 900.963 L 726.082 1070.12 C 725.978 1106.62 726.818 1143.38 725.11 1179.84 L 723.069 1178.29 C 723.05 1175.41 722.922 1172.58 722.685 1169.72 C 720.406 1165.47 723.418 1116.34 723.589 1107.32 C 725.025 1031.83 724.114 956.12 723.757 880.611 C 724.367 853.083 723.371 825.504 723.977 797.967 C 724.635 768.017 727.15 737.603 725.069 707.679 C 700.846 724.077 677.88 743.534 654.699 761.444 C 646.379 767.872 630.49 778.206 623.902 785.308 C 616.87 790.557 563.94 829.738 563.383 833.855 C 563.278 834.627 563.219 835.401 563.164 836.178 L 562.142 836.313 L 561.171 829.577 L 560.672 836.626 C 560.059 834.569 559.153 832.074 559.114 829.919 C 559.069 827.386 562.447 824.126 564.023 822.296 C 578.11 810.445 593.139 799.514 607.746 788.309 L 699.369 718.489 C 707.863 712.266 715.676 705.405 724.891 700.21 z"/>
<path transform="translate(0,0)" fill="rgb(254,253,231)" d="M 561.171 829.577 C 574.444 818.15 589.05 807.796 602.96 797.125 L 682.731 736.357 C 689.099 731.531 718.6 707.617 723.753 705.601 L 725.069 707.679 C 700.846 724.077 677.88 743.534 654.699 761.444 C 646.379 767.872 630.49 778.206 623.902 785.308 C 616.87 790.557 563.94 829.738 563.383 833.855 C 563.278 834.627 563.219 835.401 563.164 836.178 L 562.142 836.313 L 561.171 829.577 z"/>
<path transform="translate(0,0)" fill="rgb(225,159,29)" d="M 715.18 1176.94 L 715.751 1176.76 C 717.9 1174.21 720.254 1171.98 722.685 1169.72 C 722.922 1172.58 723.05 1175.41 723.069 1178.29 L 725.11 1179.84 C 717.933 1182.95 704.184 1181.17 696.249 1180.96 C 701.288 1177.28 712.823 1182.12 716.501 1178.6 L 715.18 1176.94 z"/>
<path transform="translate(0,0)" fill="rgb(178,110,8)" d="M 564.023 822.296 C 562.447 824.126 559.069 827.386 559.114 829.919 C 559.153 832.074 560.059 834.569 560.672 836.626 C 560.795 864.866 560.4 1177.37 561.886 1178.86 L 562.292 1178.37 C 568.569 1180.7 579.244 1179.26 586.139 1179.28 C 609.895 1179.35 633.76 1179.31 657.5 1178.41 C 676.641 1177.68 696.05 1175.54 715.18 1176.94 L 716.501 1178.6 C 712.823 1182.12 701.288 1177.28 696.249 1180.96 C 676.536 1182.43 567.958 1178.64 560.242 1182.13 C 560.053 1182.22 559.871 1182.32 559.686 1182.42 C 559.325 1181.08 559.037 1180.24 558.05 1179.27 C 557.78 1179 557.5 1178.75 557.225 1178.49 C 555.096 1157.31 556.765 1134.24 556.793 1112.84 L 556.904 981.854 L 556.793 874.568 C 556.811 860.728 555.013 842.717 557.458 829.269 C 558.033 826.111 561.587 824.067 564.023 822.296 z"/>
<path transform="translate(0,0)" fill="rgb(247,205,75)" d="M 623.902 785.308 C 619.993 794.852 575.789 825.022 565.36 832.921 C 565.483 847.228 564.52 861.68 564.468 876.044 L 563.034 1086.74 C 562.953 1115.82 561.863 1145.33 563.184 1174.35 L 562.292 1178.37 L 561.886 1178.86 C 560.4 1177.37 560.795 864.866 560.672 836.626 L 561.171 829.577 L 562.142 836.313 L 563.164 836.178 C 563.219 835.401 563.278 834.627 563.383 833.855 C 563.94 829.738 616.87 790.557 623.902 785.308 z"/>
<path transform="translate(0,0)" fill="rgb(147,75,2)" d="M 911.045 804.371 C 915.667 800.752 926.497 790.553 932.323 790.96 C 933.856 791.067 934.218 791.927 935.264 792.948 C 936.623 796.6 936.764 800.211 936.858 804.065 C 937.515 831.084 936.804 858.308 936.786 885.346 L 936.746 1049.19 L 936.8 1131.3 C 936.813 1147.86 938.901 1167.98 934.823 1183.96 C 931.954 1185.59 928.643 1185.62 925.411 1185.8 C 899.105 1187.22 872.086 1185.98 845.724 1185.96 C 831.442 1185.96 789.488 1188.27 778.223 1184.81 C 776.621 1184.32 775.783 1183.78 774.813 1182.44 C 771.853 1166.29 773.878 1138.77 773.877 1121.52 C 773.671 1081.88 773.673 1042.24 773.883 1002.6 C 773.906 982.321 774.993 961.384 773.794 941.172 C 774.157 931.231 773.937 921.197 774.062 911.241 C 791.507 896.289 810.294 882.606 828.427 868.478 C 855.904 847.07 883.257 825.364 911.045 804.371 z"/>
<path transform="translate(0,0)" fill="url(#Gradient3)" d="M 778.214 912.664 C 796.624 899.915 923.943 797.411 929.309 796.184 L 931.879 798.465 C 932.961 823.898 932.849 849.292 932.758 874.742 C 932.707 889.055 933.334 903.748 932.226 918.013 L 931.819 1180.53 C 881.139 1182.32 829.974 1180.78 779.233 1180.83 L 778.48 1180.08 C 775.683 1170.7 777.548 1148.29 777.53 1137.3 L 777.581 1036.11 C 778.189 1007.75 777.506 979.24 777.424 950.861 C 777.389 938.821 775.965 924.408 778.214 912.664 z"/>
<path transform="translate(0,0)" fill="rgb(178,110,8)" d="M 929.7 972.323 C 930.198 949.398 929.782 926.406 929.768 903.474 C 929.762 892.522 928.865 880.462 930.443 869.647 C 930.795 867.235 930.865 864.97 930.878 862.535 L 931.615 862.023 C 932.364 880.662 931.632 899.358 932.226 918.013 L 931.819 1180.53 C 881.139 1182.32 829.974 1180.78 779.233 1180.83 L 780.132 1179.02 C 785.469 1179.63 794.52 1180.65 799.649 1179.1 L 798.966 1178.31 C 794.47 1178.22 789.971 1178.27 785.477 1178.46 L 784.775 1177.32 C 787.173 1173.81 791.371 1174.23 794.543 1171.63 C 799.257 1167.77 803.524 1160.35 806.832 1155.13 C 809.402 1151.07 811.253 1146.68 813.644 1142.53 L 845.549 1086.41 C 853.495 1072.71 862.807 1059.8 871.062 1046.27 C 877.095 1036.39 882.27 1026.01 888.1 1016 C 896.705 1001.24 905.902 986.878 914.764 972.301 C 916.809 968.938 923.187 954.895 925.498 953.332 C 926.198 952.859 927.067 952.706 927.851 952.393 C 928.471 953.709 928.507 954.175 928.506 955.588 C 928.503 960.893 928.254 966.277 929.479 971.471 C 929.547 971.757 929.627 972.039 929.7 972.323 z"/>
<path transform="translate(0,0)" fill="rgb(225,159,29)" d="M 929.7 972.323 C 930.198 949.398 929.782 926.406 929.768 903.474 C 929.762 892.522 928.865 880.462 930.443 869.647 C 930.795 867.235 930.865 864.97 930.878 862.535 L 931.615 862.023 C 932.364 880.662 931.632 899.358 932.226 918.013 L 931.819 1180.53 C 881.139 1182.32 829.974 1180.78 779.233 1180.83 L 780.132 1179.02 C 785.469 1179.63 794.52 1180.65 799.649 1179.1 C 829.91 1179.62 860.179 1179.65 890.441 1179.19 C 902.786 1178.91 914.981 1177.39 927.354 1177.49 C 931.189 1149.77 929.989 1120.53 930.005 1092.57 L 929.7 972.323 z"/>
<path transform="translate(0,0)" fill="rgb(247,205,75)" d="M 778.214 912.664 C 796.624 899.915 923.943 797.411 929.309 796.184 L 931.879 798.465 C 922.348 803.657 911.65 811.873 904.03 819.6 C 902.116 825.796 863.654 857.648 856.257 863.359 C 843.365 873.312 828.994 882.009 816.996 893.02 C 813.07 896.623 792.993 921.453 790.327 925.763 C 786.356 932.182 783.56 940.924 782.649 948.351 C 782.158 952.362 782.395 956.32 780.818 960.114 C 779.96 945.534 781.341 930.356 781.199 915.686 C 780.807 917.217 780.312 918.72 779.847 920.23 C 778.994 917.79 778.656 915.203 778.214 912.664 z"/>
<path transform="translate(0,0)" fill="rgb(254,253,231)" d="M 778.214 912.664 C 796.624 899.915 923.943 797.411 929.309 796.184 L 931.879 798.465 C 922.348 803.657 911.65 811.873 904.03 819.6 C 893.763 825.006 866.621 849.655 855.519 858.522 C 848.632 864.023 841.04 868.661 833.987 873.961 C 816.021 887.395 798.419 901.309 781.199 915.686 C 780.807 917.217 780.312 918.72 779.847 920.23 C 778.994 917.79 778.656 915.203 778.214 912.664 z"/>
<path transform="translate(0,0)" fill="rgb(253,248,180)" d="M 777.581 1036.11 C 778.189 1007.75 777.506 979.24 777.424 950.861 C 777.389 938.821 775.965 924.408 778.214 912.664 C 778.656 915.203 778.994 917.79 779.847 920.23 C 780.312 918.72 780.807 917.217 781.199 915.686 C 781.341 930.356 779.96 945.534 780.818 960.114 C 779.916 976.993 780.486 994.094 780.422 1011.01 C 780.383 1021.53 779.547 1032.18 779.892 1042.68 L 777.581 1036.11 z"/>
<path transform="translate(0,0)" fill="rgb(247,205,75)" d="M 777.581 1036.11 L 779.892 1042.68 C 781.169 1059.28 780.226 1076.53 780.15 1093.19 C 779.998 1121.8 779.992 1150.41 780.132 1179.02 L 779.233 1180.83 L 778.48 1180.08 C 775.683 1170.7 777.548 1148.29 777.53 1137.3 L 777.581 1036.11 z"/>
<path transform="translate(0,0)" fill="url(#Gradient2)" d="M 501.536 907.882 C 504.23 908.303 504.614 908.287 506.723 910.214 C 509.127 925.278 507.855 942.034 507.834 957.309 L 507.715 1039.56 L 507.631 1134.6 C 507.615 1150.74 508.716 1167.84 507.183 1183.87 C 505.587 1182.85 503.821 1181.62 501.918 1181.35 C 492.558 1180.03 481.738 1181.03 472.265 1181.07 C 448.652 1181.15 424.902 1181.84 401.305 1181.01 C 391.583 1182.61 379.955 1181.3 369.953 1181.31 C 344.996 1181.42 320.038 1181.4 295.081 1181.25 C 285.1 1182.2 261.802 1185.21 252.795 1182.1 L 253.067 1181.26 C 257.456 1171.22 264.857 1161.63 270.924 1152.49 C 279.47 1140.47 286.962 1127.38 294.939 1114.93 L 334.474 1054.18 C 342.551 1041.68 350.553 1026.41 360.73 1015.54 C 370.745 1004.85 384.338 996.338 395.977 987.465 C 424.957 965.372 455.266 944.056 483.123 920.625 C 489.336 917.735 495.889 911.934 501.536 907.882 z"/>
<path transform="translate(0,0)" fill="url(#Gradient1)" d="M 256.37 1181.3 C 257.324 1181.09 259.175 1180.61 259.957 1180.03 C 264.75 1176.49 276.326 1155.53 280.406 1149.16 L 335.712 1064.32 C 344.664 1050.67 353.078 1035.19 363.526 1022.78 C 370.704 1014.25 404.478 991.484 416.134 982.42 L 465.826 942.996 C 475.13 935.586 484.555 927.09 494.803 921.096 C 489.685 930.52 477.806 937.126 469.975 944.281 C 464.246 949.515 458.985 955.827 454.266 961.984 C 446.557 972.043 441.171 985.004 434.251 995.802 C 418.376 1020.22 401.296 1043.83 383.073 1066.55 C 377.837 1073.1 371.984 1079.16 366.687 1085.67 C 358.005 1096.34 349.804 1107.55 341.306 1118.4 C 333.774 1128.01 327.225 1138.4 319.067 1147.51 C 314.282 1152.86 309.359 1158.13 303.858 1162.75 C 297.723 1167.91 289.605 1172.73 284.756 1179.05 C 285.761 1179.88 286.198 1180.7 287.538 1180.65 C 290.168 1180.57 292.498 1180.78 295.081 1181.25 C 285.1 1182.2 261.802 1185.21 252.795 1182.1 L 253.067 1181.26 L 256.37 1181.3 z"/>
<path transform="translate(0,0)" fill="rgb(178,110,8)" d="M 501.536 907.882 C 504.23 908.303 504.614 908.287 506.723 910.214 C 509.127 925.278 507.855 942.034 507.834 957.309 L 507.715 1039.56 L 507.631 1134.6 C 507.615 1150.74 508.716 1167.84 507.183 1183.87 C 505.587 1182.85 503.821 1181.62 501.918 1181.35 C 492.558 1180.03 481.738 1181.03 472.265 1181.07 C 448.652 1181.15 424.902 1181.84 401.305 1181.01 C 410.541 1176.98 443.639 1179.54 455.906 1178.93 C 459.261 1177.88 463.109 1178.26 466.572 1177.43 C 483.945 1173.26 491.496 1155.71 500 1142.29 C 500.043 1136.99 498.189 1122.51 500.59 1118.36 C 500.634 1082.24 500.25 1046.03 501.07 1009.93 C 501.342 997.983 502.44 986.109 502.498 974.157 C 502.557 962.102 501.575 950.152 501.457 938.129 C 501.355 927.817 502.301 918.286 501.536 907.882 z"/>
<path transform="translate(0,0)" fill="rgb(147,75,2)" d="M 500.59 1118.36 C 500.853 1138.56 500.8 1158.76 500.433 1178.96 C 485.837 1179.66 470.481 1179.85 455.906 1178.93 C 459.261 1177.88 463.109 1178.26 466.572 1177.43 C 483.945 1173.26 491.496 1155.71 500 1142.29 C 500.043 1136.99 498.189 1122.51 500.59 1118.36 z"/>
<path transform="translate(0,0)" fill="rgb(254,253,231)" d="M 256.37 1181.3 C 268.983 1165.9 279.211 1147.75 289.972 1130.98 C 306.322 1105.36 322.858 1079.85 339.579 1054.47 C 347.281 1042.58 354.421 1029.22 363.544 1018.39 C 372.341 1007.95 404.507 985.625 416.55 976.558 C 444.047 955.858 471.223 933.99 499.69 914.688 L 499.563 916.275 C 498.319 918.014 497.055 919.227 495.411 920.596 L 494.803 921.096 C 484.555 927.09 475.13 935.586 465.826 942.996 L 416.134 982.42 C 404.478 991.484 370.704 1014.25 363.526 1022.78 C 353.078 1035.19 344.664 1050.67 335.712 1064.32 L 280.406 1149.16 C 276.326 1155.53 264.75 1176.49 259.957 1180.03 C 259.175 1180.61 257.324 1181.09 256.37 1181.3 z"/>
<path transform="translate(0,0)" fill="rgb(133,63,2)" d="M 401.305 1181.01 C 424.902 1181.84 448.652 1181.15 472.265 1181.07 C 481.738 1181.03 492.558 1180.03 501.918 1181.35 C 503.821 1181.62 505.587 1182.85 507.183 1183.87 C 505.866 1184.63 504.528 1185.29 503.015 1185.54 C 494.971 1186.87 485.604 1186.05 477.424 1186.07 L 423.473 1186.13 L 296.329 1186.03 C 285.034 1185.99 273.703 1186.65 262.427 1186.41 C 259.106 1186.34 255.664 1186.34 252.834 1184.43 L 252.795 1182.1 C 261.802 1185.21 285.1 1182.2 295.081 1181.25 C 320.038 1181.4 344.996 1181.42 369.953 1181.31 C 379.955 1181.3 391.583 1182.61 401.305 1181.01 z"/>
</svg>